General
Complete name                            : SR59-230.mp3
Format                                   : MPEG Audio
File size                                : 5.67 MiB
Duration                                 : 6 min 10 s
Overall bit rate                         : 128 kb/s
Album                                    : SR59-230
Track name                               : Rear platform  remarks, President Truman, Hastings, MN
Track_More                               : Rear platform  remarks, President Harry S. Truman, Hastings, MN 28-Oct-52
Performer                                : Harry S. Truman Library
Lyricist                                 : HSTL Tagging Software: audio-tags-12d.py using FFmpeg [4th round of testing]
Publisher                                : U.S. Army Signal Corps
Genre                                    : speech
Original/Released date                   : 1952
Recorded date                            : 1952-10-28
Writing library                          : Lavf61.1.100
ISRC                                     : Harry S. Truman Library
Copyright                                : Unrestricted
Cover                                    : Yes
Cover description                        : "HST icon"
Cover MIME                               : image/jpeg
grouping                                 : NARA-HST-SRC Sound Recordings Collection
comment                                  : 1952-10-28. Hastings, MN - Rear platform remarks (6 min., 8 sec.). Recorded by: U.S. Army Signal Corps.
IPRD                                     : SR59-230
WXXX                                     : NAC URL: https://catalog.archives.gov/
COMM                                     : Rear platform  remarks, President Harry S. Truman, Hastings, MN 28-Oct-52
ISBJ                                     : Rear platform  remarks, President Harry S. Truman, Hastings, MN 28-Oct-52
dc:description                           : Rear platform  remarks, President Harry S. Truman, Hastings, MN 28-Oct-52
xmpDM:logComment                         : Rear platform  remarks, President Harry S. Truman, Hastings, MN 28-Oct-52
Â©cmt                                  : Rear platform  remarks, President Harry S. Truman, Hastings, MN 28-Oct-52
IPLS                                     : Harry Truman
Â©pub                                  : U.S. Army Signal Corps
TLOC                                     : Hastings, MN
ICRD                                     : 28-Oct-52
Original/FileName                        : SR59-230.mp3
WOAS                                     : Source URL: https://www.trumanlibrary.gov/library/sound-recordings-collection

Audio
Format                                   : MPEG Audio
Format version                           : Version 1
Format profile                           : Layer 3
Format settings                          : Joint stereo / MS Stereo
Duration                                 : 6 min 10 s
Bit rate mode                            : Constant
Bit rate                                 : 128 kb/s
Channel(s)                               : 2 channels
Sampling rate                            : 44.1 kHz
Frame rate                               : 38.281 FPS (1152 SPF)
Compression mode                         : Lossy
Stream size                              : 5.66 MiB (100%)

Image
Format                                   : JPEG
Width                                    : 300 pixels
Height                                   : 300 pixels
Color space                              : YUV
Bit depth                                : 8 bits
Compression mode                         : Lossy
Stream size                              : 17.4 KiB (0%)


